# xmcd
#
# Track frame offsets: 
#        150
#        18802
#        40189
#        53207
#        72627
#        88555
#        101686
#        122680
#        136630
#        146975
#        160477
#        184848
#        200796
#        224092
#        250275
#        268945
#        286626
#        302728
#        322092
#        339880
#
# Disc length: 4789 seconds
#
# Revision: 0
# Processed by: cddbd v1.5.2PL0 Copyright (c) Steve Scherf et al.
# Submitted via: ExactAudioCopy v0.95a5
#
DISCID=3812b314
DTITLE=Various Artist - It's Country Blues  part3 CD2
DYEAR=2007
DGENRE=Blues
TTITLE0=Shadow Of Love - COLIN JAMES
TTITLE1=Geronimo's Moon - BIG HOUSE
TTITLE2=Only the Lonely - CHRIS ISAAK
TTITLE3=Kiddin' Me - TAB BENOIT
TTITLE4=Jitterbug Boogie - ALBERT LEE and HOGAN'S HEROES
TTITLE5=Lies Tell The Best Truth Of All - FRANKIE MILLER
TTITLE6=Factory Girl - ER5IC BURDON
TTITLE7=If I Had A Boat - The HOLMES BROTHERS
TTITLE8=Biscuit Bakin Mama - AMERICAN BLUES BOX
TTITLE9=Magnificent Sanctuary Band - SUSAN TEDESCHI
TTITLE10=Country Comfort - ALBERT LEE and HOGAN'S HEROES
TTITLE11=Invisible Ones - CHARLIE MUSSELWHITE
TTITLE12=Shooting Star - GUY DAVIS
TTITLE13=If You Love Me - TAB BENOIT
TTITLE14=Who Am I Telling You  - J.J.CALE and ERIC CLAPTON
TTITLE15=Can't find my way home - RUDY ROTTA
TTITLE16=Jambalay (On The Bayou) - TOM PRINCIPATO
TTITLE17=Fire Flies In The Storm - TONY JOE WHITE and JESSI COLTER
TTITLE18=Dancin' - CHRIS ISAAK
TTITLE19=Don't Cha Do Nothin' - LITTLE CHARLIE  The NIGHTCATS
EXTD=
EXTT0=
EXTT1=
EXTT2=
EXTT3=
EXTT4=
EXTT5=
EXTT6=
EXTT7=
EXTT8=
EXTT9=
EXTT10=
EXTT11=
EXTT12=
EXTT13=
EXTT14=
EXTT15=
EXTT16=
EXTT17=
EXTT18=
EXTT19=
PLAYORDER=
